<svg width="800" height="400" xmlns="http://www.w3.org/2000/svg">
    <polyline points="780.0,35.0 780.0657765384624,29.375 780.0657765384624,29.375 780.09453977742,29.375 780.09453977742,29.375 780.1079130431946,27.5 780.1079130431946,29.375 780.0753165351393,27.5 780.0753165351393,25.625 780.0972567573857,23.75 780.0972567573857,25.625 780.307495339975,23.75 780.307495339975,23.75 780.7923212465073,20.0 780.7919559903069,20.0 780.8466586767632,20.0 780.8466586767632,20.0 780.8584533089509,20.0 780.8583712674034,20.0 781.1856170051167,23.75 781.1868453422728,23.75 781.2603176980505,27.5 781.2603176980505,27.5 781.2837506844988,27.5 781.2837506844988,27.5 780.8841030132652,27.5 780.8841030132652,27.5 780.3948475689994,31.25 780.395884458319,31.25 780.383626776972,31.25 780.383626776972,31.25 780.3179257428823,33.125 780.3179257428823,33.125 780.2025550116294,42.5 780.2039321701038,42.5 780.1178396463346,42.5 780.1185482275574,40.625 780.042935515473,40.625 780.042935515473,40.625 779.97672428148,38.75 779.97672428148,40.625 779.957013222899,38.75 779.957013222899,40.625 779.9746152241369,38.75 779.9746152241369,38.75 780.0,35.0 " fill="none" stroke="blue" stroke-width="2"/>
    <line x1="0" y1="{height - padding}" x2="{width}" y2="{height - padding}" stroke="black" stroke-width="1"/>
    </svg>